# xmcd CD database file
#
# Track frame offsets:
#	150
#	11676
#	26041
#	38231
#	63330
#	76125
#	91043
#
# Disc length: 1461 seconds
#
# Revision: 0
# Processed by: cddbd v1.5.2PL0 Copyright (c) Steve Scherf et al.
# Submitted via: CDex 1.51
#
DISCID=4705b307
DTITLE=Various Artist - Jazz Collection - Trois jeunes tambours
DYEAR=2006
DGENRE=Jazz
TTITLE0=Baby Doods - Jazz improvisation nr2
TTITLE1=Zutty Singleton - Drum face
TTITLE2=Chick Webb and his orchestra - Liza
TTITLE3=Sidney Catlett avec Barney Bigard - Rose room
TTITLE4=Lionel Hampton - Jack the Bellboy
TTITLE5=Kenny Clarke avec Sydney Bechet - Klook's blues
TTITLE6=Art Blakey avec Horace Silver - Nothing but the Soul
EXTD=YEAR: 2006
EXTT0=
EXTT1=
EXTT2=
EXTT3=
EXTT4=
EXTT5=
EXTT6=
PLAYORDER=
